<svg width="16" height="16" viewBox="0 0 16 16" fill="none" xmlns="http://www.w3.org/2000/svg">
  <path d="M14.499 10.8409C14.6721 10.8401 14.8231 10.8998 14.9424 11.0206C15.0607 11.1406 15.1201 11.2902 15.1201 11.4611V13.3839C15.1201 13.8744 14.955 14.2903 14.623 14.6222C14.2912 14.9541 13.8748 15.1195 13.3838 15.1202H2.61621C2.12575 15.1202 1.70983 14.9551 1.37793 14.6232C1.04605 14.2913 0.880592 13.8749 0.879883 13.3839V11.4611C0.879899 11.2891 0.939474 11.1398 1.05859 11.0206C1.17759 10.9017 1.32696 10.8418 1.49902 10.8409C1.67209 10.8401 1.82313 10.8998 1.94238 11.0206C2.06072 11.1406 2.1201 11.2902 2.12012 11.4611V13.3839C2.12012 13.5006 2.16742 13.6133 2.27734 13.7238C2.3869 13.8338 2.49824 13.8804 2.61426 13.88H13.3848C13.5006 13.88 13.613 13.8328 13.7236 13.7228C13.8335 13.6133 13.8803 13.5017 13.8799 13.3849V11.4611C13.8799 11.2891 13.9395 11.1398 14.0586 11.0206C14.1776 10.9017 14.327 10.8418 14.499 10.8409ZM8.00098 0.880005C8.1727 0.880901 8.32237 0.939636 8.44141 1.05774C8.56105 1.17655 8.62012 1.32719 8.62012 1.50012V9.3595L10.3857 7.59387C10.5038 7.47577 10.6484 7.41221 10.8135 7.40637C10.9433 7.40185 11.0622 7.44026 11.168 7.51477L11.2695 7.60071L11.2705 7.60168C11.3934 7.72855 11.4642 7.87449 11.4668 8.03723C11.4694 8.20308 11.397 8.351 11.2695 8.47766L11.2686 8.47668L8.64941 11.0968C8.55385 11.1923 8.45108 11.2631 8.34082 11.3058L8.3418 11.3068C8.23579 11.3481 8.12127 11.3683 8 11.3683C7.8794 11.3683 7.7655 11.3478 7.65918 11.3068C7.54863 11.264 7.44521 11.1922 7.34961 11.0958V11.0948L4.73047 8.47668C4.61256 8.35877 4.54796 8.21579 4.54297 8.05188C4.53784 7.88272 4.60463 7.73106 4.72852 7.60168L4.73047 7.60071C4.85779 7.47338 5.00469 7.39926 5.16992 7.39661C5.33712 7.39399 5.48585 7.46597 5.61328 7.59387H5.61426L7.37988 9.3595V1.50012C7.37988 1.32828 7.43889 1.17837 7.55762 1.05872C7.67696 0.938543 7.8281 0.879197 8.00098 0.880005Z" fill="url(#paint0_linear_524_4176)" stroke="url(#paint1_linear_524_4176)" stroke-width="0.24"/>
  <defs>
    <linearGradient id="paint0_linear_524_4176" x1="18.8987" y1="10.6209" x2="-4.68521" y2="4.62584" gradientUnits="userSpaceOnUse">
    <stop stop-color="#623F76"/>
    <stop offset="1" stop-color="#5A336E"/>
    </linearGradient>
    <linearGradient id="paint1_linear_524_4176" x1="18.8987" y1="10.6209" x2="-4.68521" y2="4.62584" gradientUnits="userSpaceOnUse">
    <stop stop-color="#623F76"/>
    <stop offset="1" stop-color="#5A336E"/>
    </linearGradient>
  </defs>
</svg>
