<svg width="18" height="18" viewBox="0 0 18 18" fill="none" xmlns="http://www.w3.org/2000/svg">
  <path d="M1.38428 10.3542L9.16928 2.56915C9.57279 2.15707 10.054 1.8291 10.5851 1.6042C11.1162 1.3793 11.6866 1.26194 12.2633 1.25891C12.8401 1.25588 13.4117 1.36725 13.9451 1.58656C14.4785 1.80587 14.9632 2.12878 15.371 2.5366C15.7788 2.94442 16.1017 3.42906 16.321 3.96248C16.5403 4.4959 16.6517 5.06751 16.6487 5.64425C16.6457 6.22099 16.5283 6.7914 16.3034 7.32249C16.0785 7.85358 15.7505 8.3348 15.3384 8.73832L8.06678 16.0083C7.6163 16.4442 7.01257 16.6856 6.38576 16.6804C5.75895 16.6752 5.15928 16.424 4.71605 15.9807C4.27281 15.5375 4.02152 14.9378 4.01636 14.311C4.01119 13.6842 4.25257 13.0805 4.68844 12.63L11.6651 5.65248" stroke="url(#paint0_linear_524_3930)" stroke-width="1.5" stroke-linecap="round" stroke-linejoin="round"/>
  <defs>
    <linearGradient id="paint0_linear_524_3930" x1="20.8996" y1="11.8566" x2="-4.8461" y2="5.37868" gradientUnits="userSpaceOnUse">
      <stop stop-color="#623F76"/>
      <stop offset="1" stop-color="#5A336E"/>
    </linearGradient>
  </defs>
</svg>
