<svg width="16" height="18" viewBox="0 0 16 18" fill="none" xmlns="http://www.w3.org/2000/svg">
  <path d="M6.5 3.07576H9.5C9.5 2.66588 9.34196 2.27279 9.06066 1.98296C8.77936 1.69313 8.39782 1.5303 8 1.5303C7.60218 1.5303 7.22064 1.69313 6.93934 1.98296C6.65804 2.27279 6.5 2.66588 6.5 3.07576ZM5.5 3.07576C5.5 2.39262 5.76339 1.73747 6.23223 1.25442C6.70107 0.771374 7.33696 0.5 8 0.5C8.66304 0.5 9.29893 0.771374 9.76777 1.25442C10.2366 1.73747 10.5 2.39262 10.5 3.07576H15.5C15.6326 3.07576 15.7598 3.13003 15.8536 3.22664C15.9473 3.32325 16 3.45428 16 3.59091C16 3.72754 15.9473 3.85857 15.8536 3.95518C15.7598 4.05179 15.6326 4.10606 15.5 4.10606H14.446L13.252 14.7635C13.1676 15.5169 12.8173 16.212 12.2679 16.7165C11.7184 17.2211 11.008 17.4999 10.272 17.5H5.728C4.99195 17.4999 4.28161 17.2211 3.73214 16.7165C3.18266 16.212 2.8324 15.5169 2.748 14.7635L1.554 4.10606H0.5C0.367392 4.10606 0.240215 4.05179 0.146447 3.95518C0.0526785 3.85857 0 3.72754 0 3.59091C0 3.45428 0.0526785 3.32325 0.146447 3.22664C0.240215 3.13003 0.367392 3.07576 0.5 3.07576H5.5ZM3.741 14.6461C3.79743 15.1482 4.03105 15.6115 4.39742 15.9478C4.76379 16.284 5.23735 16.4698 5.728 16.4697H10.272C10.7627 16.4698 11.2362 16.284 11.6026 15.9478C11.969 15.6115 12.2026 15.1482 12.259 14.6461L13.439 4.10606H2.561L3.741 14.6461ZM6.5 6.68182C6.63261 6.68182 6.75979 6.73609 6.85355 6.8327C6.94732 6.92931 7 7.06034 7 7.19697V13.3788C7 13.5154 6.94732 13.6464 6.85355 13.7431C6.75979 13.8397 6.63261 13.8939 6.5 13.8939C6.36739 13.8939 6.24021 13.8397 6.14645 13.7431C6.05268 13.6464 6 13.5154 6 13.3788V7.19697C6 7.06034 6.05268 6.92931 6.14645 6.8327C6.24021 6.73609 6.36739 6.68182 6.5 6.68182ZM10 7.19697C10 7.06034 9.94732 6.92931 9.85355 6.8327C9.75979 6.73609 9.63261 6.68182 9.5 6.68182C9.36739 6.68182 9.24021 6.73609 9.14645 6.8327C9.05268 6.92931 9 7.06034 9 7.19697V13.3788C9 13.5154 9.05268 13.6464 9.14645 13.7431C9.24021 13.8397 9.36739 13.8939 9.5 13.8939C9.63261 13.8939 9.75979 13.8397 9.85355 13.7431C9.94732 13.6464 10 13.5154 10 13.3788V7.19697Z" fill="#343434"/>
</svg>
